#N canvas 751 28 1782 941 12;
#X obj 16 19 netreceive -u -b 8000;
#X msg 50 101 devices;
#X msg 119 101 close;
#X msg 182 101 close \, baud 115200 \, open 4;
#X obj 17 909 netsend -u -b;
#X msg 34 866 disconnect;
#X msg 127 866 disconnect \, connect 127.0.0.1 8001;
#X obj 182 67 loadbang;
#X obj 127 835 loadbang;
#X obj 16 57 pdchoco/slip_pack;
#X obj 16 158 comport;
#X obj 16 201 pdchoco/slip_parse;
#X obj 854 78 oscparse;
#X obj 885 900 netsend -u -b;
#X msg 902 857 disconnect;
#X obj 995 826 loadbang;
#X msg 995 857 disconnect \, connect 127.0.0.1 9001;
#X obj 854 114 list trim;
#X obj 854 154 route key angle encodeur_bouton encodeur_change tof;
#X msg 262 399 1;
#X msg 306 398 1;
#X obj 262 220 tgl 19 0 empty empty empty 0 -10 0 12 #fcfcfc #000000 #000000 0 1;
#X obj 262 356 select 0 1;
#X obj 262 251 pdchoco/stream_flip_flop;
#X obj 262 319 tgl 19 0 empty empty empty 0 -10 0 12 #fcfcfc #000000 #000000 0 1;
#X obj 262 285 change;
#X obj 519 497 nbx 5 17 -1e+37 1e+37 0 0 empty empty empty 0 -10 0 12 #fcfcfc #000000 #000000 0 256;
#X obj 519 318 vsl 19 162 0 1 0 0 empty empty empty 0 -9 0 12 #fcfcfc #000000 #000000 0 1;
#X obj 519 219 nbx 5 17 -1e+37 1e+37 0 0 empty empty empty 0 -10 0 12 #fcfcfc #000000 #000000 0 256;
#X obj 519 248 / 4095;
#X obj 519 284 pdchoco/stream_smooth 0.1 0.1;
#X obj 1545 510 nbx 5 17 -1e+37 1e+37 0 0 empty empty empty 0 -10 0 12 #fcfcfc #000000 #000000 0 256;
#X obj 1545 331 vsl 19 162 0 1 0 0 empty empty empty 0 -9 0 12 #fcfcfc #000000 #000000 0 1;
#X obj 1545 232 nbx 5 17 -1e+37 1e+37 0 0 empty empty empty 0 -10 0 12 #fcfcfc #000000 #000000 0 256;
#X obj 1545 297 pdchoco/stream_smooth 0.1 0.1;
#X obj 1545 261 / 8190;
#X msg 801 402 1;
#X msg 845 401 1;
#X obj 801 223 tgl 19 0 empty empty empty 0 -10 0 12 #fcfcfc #000000 #000000 0 1;
#X obj 801 359 select 0 1;
#X obj 801 254 pdchoco/stream_flip_flop;
#X obj 801 322 tgl 19 0 empty empty empty 0 -10 0 12 #fcfcfc #000000 #000000 0 1;
#X obj 801 288 change;
#X obj 1061 219 nbx 5 17 -1e+37 1e+37 0 0 empty empty empty 0 -10 0 12 #fcfcfc #000000 #000000 0 256;
#X connect 0 0 9 0;
#X connect 1 0 10 0;
#X connect 2 0 10 0;
#X connect 3 0 10 0;
#X connect 5 0 4 0;
#X connect 6 0 4 0;
#X connect 7 0 3 0;
#X connect 8 0 6 0;
#X connect 9 0 10 0;
#X connect 10 0 11 0;
#X connect 11 0 4 0;
#X connect 11 0 12 0;
#X connect 12 0 17 0;
#X connect 14 0 13 0;
#X connect 15 0 16 0;
#X connect 16 0 13 0;
#X connect 17 0 18 0;
#X connect 18 0 21 0;
#X connect 18 1 28 0;
#X connect 18 2 38 0;
#X connect 18 3 43 0;
#X connect 18 4 33 0;
#X connect 21 0 23 0;
#X connect 22 0 19 0;
#X connect 22 1 20 0;
#X connect 23 0 25 0;
#X connect 24 0 22 0;
#X connect 25 0 24 0;
#X connect 27 0 26 0;
#X connect 28 0 29 0;
#X connect 29 0 30 0;
#X connect 30 0 27 0;
#X connect 32 0 31 0;
#X connect 33 0 35 0;
#X connect 34 0 32 0;
#X connect 35 0 34 0;
#X connect 38 0 40 0;
#X connect 39 0 36 0;
#X connect 39 1 37 0;
#X connect 40 0 42 0;
#X connect 41 0 39 0;
#X connect 42 0 41 0;
