#N canvas 1359 225 450 526 12;
#X obj 16 19 netreceive -u -b 8000;
#X obj 16 158 comport;
#X msg 50 101 devices;
#X msg 119 101 close;
#X msg 182 101 close \, baud 115200 \, open 4;
#X obj 16 201 pdchoco/slip_parse;
#X obj 16 314 netsend -u -b;
#X msg 33 271 disconnect;
#X msg 126 271 disconnect \, connect 127.0.0.1 8001;
#X obj 16 57 pdchoco/slip_pack;
#X obj 182 67 loadbang;
#X obj 126 240 loadbang;
#X connect 0 0 9 0;
#X connect 1 0 5 0;
#X connect 2 0 1 0;
#X connect 3 0 1 0;
#X connect 4 0 1 0;
#X connect 5 0 6 0;
#X connect 7 0 6 0;
#X connect 8 0 6 0;
#X connect 9 0 1 0;
#X connect 10 0 4 0;
#X connect 11 0 8 0;
